<svg xmlns="http://www.w3.org/2000/svg" xmlns:svg="http://www.w3.org/2000/svg" xmlns:xlink="http://www.w3.org/1999/xlink" id="svg1096" width="1916.648" height="483.97" version="1.1" viewBox="0 0 1437.486 362.978"><metadata id="metadata2"/><defs id="defs6"><style id="style4" type="text/css">*{stroke-linecap:butt;stroke-linejoin:round}</style><defs id="defs763"><path id="m89ce144a55" d="m 823.67934,-327.12787 v 6.93277 l 46.22212,137.87623 46.22212,69.03418 46.22212,23.923739 46.2231,14.917821 46.2221,17.951624 v -1.928158 0 l -46.2221,-18.018131 -46.2231,-14.878344 -46.22212,-23.851891 -46.22212,-71.19433 z" style="stroke:#55a868;stroke-opacity:.2"/></defs><defs id="defs488"><path id="m04b1e6744d" d="m 466.9032,-72.871147 v 16.379641 l 46.22212,-114.342964 46.22212,-69.913 46.22212,-47.62635 46.22312,6.68524 46.22212,-30.44176 v -14.99753 0 l -46.22212,33.92022 -46.22312,-3.90068 -46.22212,43.80921 -46.22212,70.3262 z" style="stroke:#dd8452;stroke-opacity:.2"/></defs><defs id="defs1009"><path id="m867c8604a3" d="m 1180.4555,-327.12787 v 3.64642 l 46.2221,157.71249 46.2221,56.82011 46.2221,24.224828 46.2232,18.115524 46.2221,10.116992 v -0.61253 0 l -46.2221,-10.321702 -46.2232,-18.755096 -46.2221,-24.966616 -46.2221,-57.44056 z" style="stroke:#c44e52;stroke-opacity:.2"/></defs><defs id="defs282"><path id="DejaVuSans-109" d="M 52,44.1875 Q 55.375,50.25 60.0625,53.125 64.75,56 71.09375,56 q 8.546875,0 13.1875,-5.984375 4.640625,-5.96875 4.640625,-17 V 0 h -9.03125 v 32.71875 q 0,7.859375 -2.796875,11.65625 -2.78125,3.8125 -8.484375,3.8125 -6.984375,0 -11.046875,-4.640625 -4.046875,-4.625 -4.046875,-12.640625 V 0 h -9.03125 v 32.71875 q 0,7.90625 -2.78125,11.6875 -2.78125,3.78125 -8.59375,3.78125 -6.890625,0 -10.953125,-4.65625 -4.046875,-4.65625 -4.046875,-12.625 V 0 h -9.03125 v 54.6875 h 9.03125 v -8.5 q 3.078125,5.03125 7.375,7.421875 Q 29.78125,56 35.6875,56 41.65625,56 45.828125,52.96875 50,49.953125 52,44.1875 Z"/><path id="DejaVuSans-116" d="M 18.3125,70.21875 V 54.6875 h 18.5 v -6.984375 h -18.5 v -29.6875 q 0,-6.6875 1.828125,-8.59375 1.828125,-1.90625 7.453125,-1.90625 H 36.8125 V 0 H 27.59375 Q 17.1875,0 13.234375,3.875 9.28125,7.765625 9.28125,18.015625 v 29.6875 H 2.6875 V 54.6875 h 6.59375 v 15.53125 z"/><path id="DejaVuSans-114" d="m 41.109375,46.296875 q -1.515625,0.875 -3.296875,1.28125 Q 36.03125,48 33.890625,48 26.265625,48 22.1875,43.046875 18.109375,38.09375 18.109375,28.8125 V 0 h -9.03125 v 54.6875 h 9.03125 v -8.5 q 2.84375,4.984375 7.375,7.390625 Q 30.03125,56 36.53125,56 q 0.921875,0 2.046875,-0.125 1.125,-0.109375 2.484375,-0.359375 z"/><path id="DejaVuSans-105" d="M 9.421875,54.6875 H 18.40625 V 0 H 9.421875 Z m 0,21.296875 H 18.40625 V 64.59375 H 9.421875 Z"/><path id="DejaVuSans-32"/><path id="DejaVuSans-61" d="M 10.59375,45.40625 H 73.1875 V 37.203125 H 10.59375 Z m 0,-19.921875 H 73.1875 V 17.1875 H 10.59375 Z"/><path id="DejaVuSans-47" d="M 25.390625,72.90625 H 33.6875 L 8.296875,-9.28125 H 0 Z"/><path id="DejaVuSans-115" d="m 44.28125,53.078125 v -8.5 Q 40.484375,46.53125 36.375,47.5 q -4.09375,0.984375 -8.5,0.984375 -6.6875,0 -10.03125,-2.046875 Q 14.5,44.390625 14.5,40.28125 q 0,-3.125 2.390625,-4.90625 2.390625,-1.78125 9.625,-3.390625 l 3.078125,-0.6875 Q 39.15625,29.25 43.1875,25.515625 47.21875,21.78125 47.21875,15.09375 q 0,-7.625 -6.03125,-12.078125 -6.03125,-4.4375 -16.578125,-4.4375 -4.390625,0 -9.15625,0.859375 Q 10.6875,0.296875 5.421875,2 v 9.28125 q 4.984375,-2.59375 9.8125,-3.890625 4.828125,-1.28125 9.578125,-1.28125 6.34375,0 9.75,2.171875 3.421875,2.171875 3.421875,6.125 0,3.65625 -2.46875,5.609375 -2.453125,1.953125 -10.8125,3.765625 l -3.125,0.734375 q -8.34375,1.75 -12.0625,5.390625 -3.703125,3.640625 -3.703125,9.984375 0,7.71875 5.46875,11.90625 Q 16.75,56 26.8125,56 q 4.96875,0 9.359375,-0.734375 4.40625,-0.71875 8.109375,-2.1875 z"/></defs><defs id="defs506"><path id="DejaVuSans-110" d="M 54.890625,33.015625 V 0 H 45.90625 v 32.71875 q 0,7.765625 -3.03125,11.609375 -3.03125,3.859375 -9.078125,3.859375 -7.28125,0 -11.484375,-4.640625 -4.203125,-4.625 -4.203125,-12.640625 V 0 h -9.03125 v 54.6875 h 9.03125 v -8.5 q 3.234375,4.9375 7.59375,7.375 4.375,2.4375 10.09375,2.4375 9.421875,0 14.25,-5.828125 4.84375,-5.828125 4.84375,-17.15625 z"/><path id="DejaVuSans-95" d="m 50.984375,-16.609375 v -6.96875 h -51.96875 v 6.96875 z"/></defs><defs id="defs781"><path id="DejaVuSans-102" d="M 37.109375,75.984375 V 68.5 h -8.59375 q -4.828125,0 -6.71875,-1.953125 -1.875,-1.953125 -1.875,-7.03125 V 54.6875 H 34.71875 V 47.703125 H 19.921875 V 0 h -9.03125 V 47.703125 H 2.296875 V 54.6875 h 8.59375 V 58.5 q 0,9.125 4.25,13.296875 4.25,4.1875 13.46875,4.1875 z"/><path id="DejaVuSans-100" d="m 45.40625,46.390625 v 29.59375 h 8.984375 V 0 H 45.40625 v 8.203125 q -2.828125,-4.875 -7.15625,-7.25 -4.3125,-2.375 -10.375,-2.375 -9.90625,0 -16.140625,7.90625 -6.21875,7.921875 -6.21875,20.8125 0,12.890625 6.21875,20.796875 Q 17.96875,56 27.875,56 q 6.0625,0 10.375,-2.375 4.328125,-2.359375 7.15625,-7.234375 z M 14.796875,27.296875 q 0,-9.90625 4.078125,-15.546875 4.078125,-5.640625 11.203125,-5.640625 7.125,0 11.21875,5.640625 4.109375,5.640625 4.109375,15.546875 0,9.90625 -4.109375,15.546875 -4.09375,5.640625 -11.21875,5.640625 -7.125,0 -11.203125,-5.640625 -4.078125,-5.640625 -4.078125,-15.546875 z"/></defs></defs><path style="fill:#fff" id="path8" d="M 0,362.97781 H 1437.486 V 0 H 0 Z"/><path style="fill:#eaeaf2" id="path11" d="M 49.807187,320.01812 H 359.95763 V 22.318125 H 49.807187 Z"/><g id="line2d_1"><path style="fill:none;stroke:#fff;stroke-linecap:round" id="path14" d="M 59.283714,320.01812 V 22.318125" clip-path="url(#p33d8bb518f)"/></g><g id="text_1"><g style="fill:#262626" id="g22" transform="matrix(0.11,0,0,-0.11,55.784339,337.87641)"><defs id="defs18"><path id="DejaVuSans-48" d="m 31.78125,66.40625 q -7.609375,0 -11.453125,-7.5 Q 16.5,51.421875 16.5,36.375 q 0,-14.984375 3.828125,-22.484375 3.84375,-7.5 11.453125,-7.5 7.671875,0 11.5,7.5 3.84375,7.5 3.84375,22.484375 0,15.046875 -3.84375,22.53125 -3.828125,7.5 -11.5,7.5 z m 0,7.8125 q 12.265625,0 18.734375,-9.703125 6.46875,-9.6875 6.46875,-28.140625 0,-18.40625 -6.46875,-28.109375 -6.46875,-9.6875 -18.734375,-9.6875 -12.25,0 -18.71875,9.6875 Q 6.59375,17.96875 6.59375,36.375 q 0,18.453125 6.46875,28.140625 6.46875,9.703125 18.71875,9.703125 z"/></defs><use id="use20" width="100%" height="100%" x="0" y="0" xlink:href="#DejaVuSans-48"/></g></g><g id="line2d_2"><path style="fill:none;stroke:#fff;stroke-linecap:round" id="path26" d="M 106.27604,320.01812 V 22.318125" clip-path="url(#p33d8bb518f)"/></g><g id="text_2"><g style="fill:#262626" id="g36" transform="matrix(0.11,0,0,-0.11,99.27729,337.87641)"><defs id="defs30"><path id="DejaVuSans-49" d="m 12.40625,8.296875 h 16.109375 v 55.625 L 10.984375,60.40625 v 8.984375 l 17.4375,3.515625 H 38.28125 V 8.296875 H 54.390625 V 0 H 12.40625 Z"/></defs><use id="use32" width="100%" height="100%" x="0" y="0" xlink:href="#DejaVuSans-49"/><use id="use34" width="100%" height="100%" x="63.623" y="0" xlink:href="#DejaVuSans-48"/></g></g><g id="line2d_3"><path style="fill:none;stroke:#fff;stroke-linecap:round" id="path40" d="M 153.26837,320.01812 V 22.318125" clip-path="url(#p33d8bb518f)"/></g><g id="text_3"><g style="fill:#262626" id="g50" transform="matrix(0.11,0,0,-0.11,146.26962,337.87641)"><defs id="defs44"><path id="DejaVuSans-50" d="M 19.1875,8.296875 H 53.609375 V 0 H 7.328125 v 8.296875 q 5.609375,5.8125 15.296875,15.59375 9.703125,9.796875 12.1875,12.640625 4.734375,5.3125 6.609375,9 1.890625,3.6875 1.890625,7.25 0,5.8125 -4.078125,9.46875 -4.078125,3.671875 -10.625,3.671875 -4.640625,0 -9.796875,-1.609375 -5.140625,-1.609375 -11,-4.890625 v 9.96875 Q 13.765625,71.78125 18.9375,73 q 5.1875,1.21875 9.484375,1.21875 11.328125,0 18.0625,-5.671875 6.734375,-5.65625 6.734375,-15.125 0,-4.5 -1.6875,-8.53125 Q 49.859375,40.875 45.40625,35.40625 44.1875,33.984375 37.640625,27.21875 31.109375,20.453125 19.1875,8.296875 Z"/></defs><use id="use46" width="100%" height="100%" x="0" y="0" xlink:href="#DejaVuSans-50"/><use id="use48" width="100%" height="100%" x="63.623" y="0" xlink:href="#DejaVuSans-48"/></g></g><g id="line2d_4"><path style="fill:none;stroke:#fff;stroke-linecap:round" id="path54" d="M 200.26069,320.01812 V 22.318125" clip-path="url(#p33d8bb518f)"/></g><g id="text_4"><g style="fill:#262626" id="g64" transform="matrix(0.11,0,0,-0.11,193.26194,337.87641)"><defs id="defs58"><path id="DejaVuSans-51" d="M 40.578125,39.3125 Q 47.65625,37.796875 51.625,33 q 3.984375,-4.78125 3.984375,-11.8125 0,-10.78125 -7.421875,-16.703125 -7.421875,-5.90625 -21.09375,-5.90625 -4.578125,0 -9.4375,0.90625 -4.859375,0.90625 -10.03125,2.71875 v 9.515625 q 4.09375,-2.390625 8.96875,-3.609375 4.890625,-1.21875 10.21875,-1.21875 9.265625,0 14.125,3.65625 4.859375,3.65625 4.859375,10.640625 0,6.453125 -4.515625,10.078125 -4.515625,3.640625 -12.5625,3.640625 h -8.5 v 8.109375 h 8.890625 q 7.265625,0 11.125,2.90625 3.859375,2.90625 3.859375,8.375 0,5.609375 -3.984375,8.609375 -3.96875,3.015625 -11.390625,3.015625 -4.0625,0 -8.703125,-0.890625 Q 15.375,64.15625 9.8125,62.3125 v 8.78125 q 5.625,1.5625 10.53125,2.34375 4.90625,0.78125 9.25,0.78125 11.234375,0 17.765625,-5.109375 6.546875,-5.09375 6.546875,-13.78125 0,-6.0625 -3.46875,-10.234375 -3.46875,-4.171875 -9.859375,-5.78125 z"/></defs><use id="use60" width="100%" height="100%" x="0" y="0" xlink:href="#DejaVuSans-51"/><use id="use62" width="100%" height="100%" x="63.623" y="0" xlink:href="#DejaVuSans-48"/></g></g><g id="line2d_5"><path style="fill:none;stroke:#fff;stroke-linecap:round" id="path68" d="M 247.25302,320.01812 V 22.318125" clip-path="url(#p33d8bb518f)"/></g><g id="text_5"><g style="fill:#262626" id="g78" transform="matrix(0.11,0,0,-0.11,240.25427,337.87641)"><defs id="defs72"><path id="DejaVuSans-52" d="M 37.796875,64.3125 12.890625,25.390625 h 24.90625 z m -2.59375,8.59375 h 12.40625 V 25.390625 h 10.40625 V 17.1875 H 47.609375 V 0 h -9.8125 V 17.1875 H 4.890625 v 9.515625 z"/></defs><use id="use74" width="100%" height="100%" x="0" y="0" xlink:href="#DejaVuSans-52"/><use id="use76" width="100%" height="100%" x="63.623" y="0" xlink:href="#DejaVuSans-48"/></g></g><g id="line2d_6"><path style="fill:none;stroke:#fff;stroke-linecap:round" id="path82" d="M 294.24534,320.01812 V 22.318125" clip-path="url(#p33d8bb518f)"/></g><g id="text_6"><g style="fill:#262626" id="g92" transform="matrix(0.11,0,0,-0.11,287.2466,337.87641)"><defs id="defs86"><path id="DejaVuSans-53" d="m 10.796875,72.90625 h 38.71875 v -8.3125 h -29.6875 V 46.734375 q 2.140625,0.734375 4.28125,1.09375 2.15625,0.359375 4.3125,0.359375 Q 40.625,48.1875 47.75,41.5 54.890625,34.8125 54.890625,23.390625 54.890625,11.625 47.5625,5.09375 40.234375,-1.421875 26.90625,-1.421875 q -4.59375,0 -9.359375,0.78125 -4.75,0.78125 -9.828125,2.34375 V 11.625 q 4.390625,-2.390625 9.078125,-3.5625 4.6875,-1.171875 9.90625,-1.171875 8.453125,0 13.375,4.4375 4.9375,4.4375 4.9375,12.0625 0,7.609375 -4.9375,12.046875 -4.921875,4.453125 -13.375,4.453125 -3.953125,0 -7.890625,-0.875 -3.921875,-0.875 -8.015625,-2.734375 z"/></defs><use id="use88" width="100%" height="100%" x="0" y="0" xlink:href="#DejaVuSans-53"/><use id="use90" width="100%" height="100%" x="63.623" y="0" xlink:href="#DejaVuSans-48"/></g></g><g id="line2d_7"><path style="fill:none;stroke:#fff;stroke-linecap:round" id="path96" d="M 341.23767,320.01812 V 22.318125" clip-path="url(#p33d8bb518f)"/></g><g id="text_7"><g style="fill:#262626" id="g106" transform="matrix(0.11,0,0,-0.11,334.23892,337.87641)"><defs id="defs100"><path id="DejaVuSans-54" d="m 33.015625,40.375 q -6.640625,0 -10.53125,-4.546875 -3.875,-4.53125 -3.875,-12.4375 0,-7.859375 3.875,-12.4375 3.890625,-4.5625 10.53125,-4.5625 6.640625,0 10.515625,4.5625 3.875,4.578125 3.875,12.4375 0,7.90625 -3.875,12.4375 Q 39.65625,40.375 33.015625,40.375 Z M 52.59375,71.296875 V 62.3125 q -3.71875,1.75 -7.5,2.671875 -3.78125,0.9375 -7.5,0.9375 -9.765625,0 -14.921875,-6.59375 -5.140625,-6.59375 -5.875,-19.921875 2.875,4.25 7.21875,6.515625 4.359375,2.265625 9.578125,2.265625 10.984375,0 17.359375,-6.671875 6.375,-6.65625 6.375,-18.125 0,-11.234375 -6.640625,-18.03125 -6.640625,-6.78125 -17.671875,-6.78125 -12.65625,0 -19.34375,9.6875 -6.6875,9.703125 -6.6875,28.109375 0,17.28125 8.203125,27.5625 8.203125,10.28125 22.015625,10.28125 3.71875,0 7.5,-0.734375 3.78125,-0.734375 7.890625,-2.1875 z"/></defs><use id="use102" width="100%" height="100%" x="0" y="0" xlink:href="#DejaVuSans-54"/><use id="use104" width="100%" height="100%" x="63.623" y="0" xlink:href="#DejaVuSans-48"/></g></g><g style="fill:#262626" id="g127" transform="matrix(0.12,0,0,-0.12,186.60866,353.28219)"><defs id="defs115"><path id="DejaVuSans-101" d="m 56.203125,29.59375 v -4.390625 h -41.3125 q 0.59375,-9.28125 5.59375,-14.140625 5,-4.859375 13.9375,-4.859375 5.171875,0 10.03125,1.265625 4.859375,1.265625 9.65625,3.8125 v -8.5 q -4.84375,-2.046875 -9.921875,-3.125 -5.078125,-1.078125 -10.296875,-1.078125 -13.09375,0 -20.734375,7.609375 -7.640625,7.625 -7.640625,20.625 0,13.421875 7.25,21.296875 Q 20.015625,56 32.328125,56 q 11.03125,0 17.453125,-7.109375 6.421875,-7.09375 6.421875,-19.296875 z m -8.984375,2.640625 q -0.09375,7.359375 -4.125,11.75 -4.03125,4.40625 -10.671875,4.40625 -7.515625,0 -12.03125,-4.25 -4.515625,-4.25 -5.203125,-11.96875 z"/><path id="DejaVuSans-112" d="m 18.109375,8.203125 v -29 H 9.078125 V 54.6875 h 9.03125 v -8.296875 q 2.84375,4.875 7.15625,7.234375 Q 29.59375,56 35.59375,56 q 9.96875,0 16.1875,-7.90625 6.234375,-7.90625 6.234375,-20.796875 0,-12.890625 -6.234375,-20.8125 -6.21875,-7.90625 -16.1875,-7.90625 -6,0 -10.328125,2.375 -4.3125,2.375 -7.15625,7.25 z M 48.6875,27.296875 q 0,9.90625 -4.078125,15.546875 -4.078125,5.640625 -11.203125,5.640625 -7.140625,0 -11.21875,-5.640625 -4.078125,-5.640625 -4.078125,-15.546875 0,-9.90625 4.078125,-15.546875 4.078125,-5.640625 11.21875,-5.640625 7.125,0 11.203125,5.640625 4.078125,5.640625 4.078125,15.546875 z"/><path id="DejaVuSans-111" d="m 30.609375,48.390625 q -7.21875,0 -11.421875,-5.640625 -4.203125,-5.640625 -4.203125,-15.453125 0,-9.8125 4.171875,-15.453125 4.1875,-5.640625 11.453125,-5.640625 7.1875,0 11.375,5.65625 4.203125,5.671875 4.203125,15.4375 0,9.71875 -4.203125,15.40625 -4.1875,5.6875 -11.375,5.6875 z m 0,7.609375 q 11.71875,0 18.40625,-7.625 6.703125,-7.609375 6.703125,-21.078125 0,-13.421875 -6.703125,-21.078125 -6.6875,-7.640625 -18.40625,-7.640625 -11.765625,0 -18.4375,7.640625 -6.65625,7.65625 -6.65625,21.078125 0,13.46875 6.65625,21.078125 Q 18.84375,56 30.609375,56 Z"/><path id="DejaVuSans-99" d="M 48.78125,52.59375 V 44.1875 q -3.8125,2.109375 -7.640625,3.15625 -3.828125,1.046875 -7.734375,1.046875 -8.75,0 -13.59375,-5.546875 -4.828125,-5.53125 -4.828125,-15.546875 0,-10.015625 4.828125,-15.5625 4.84375,-5.53125 13.59375,-5.53125 3.90625,0 7.734375,1.046875 3.828125,1.046875 7.640625,3.15625 v -8.3125 q -3.765625,-1.75 -7.796875,-2.625 -4.015625,-0.890625 -8.5625,-0.890625 -12.359375,0 -19.640625,7.765625 -7.265625,7.765625 -7.265625,20.953125 0,13.375 7.34375,21.03125 Q 20.21875,56 33.015625,56 q 4.140625,0 8.09375,-0.859375 3.953125,-0.84375 7.671875,-2.546875 z"/><path id="DejaVuSans-104" d="M 54.890625,33.015625 V 0 H 45.90625 v 32.71875 q 0,7.765625 -3.03125,11.609375 -3.03125,3.859375 -9.078125,3.859375 -7.28125,0 -11.484375,-4.640625 -4.203125,-4.625 -4.203125,-12.640625 V 0 h -9.03125 v 75.984375 h 9.03125 V 46.1875 q 3.234375,4.9375 7.59375,7.375 4.375,2.4375 10.09375,2.4375 9.421875,0 14.25,-5.828125 4.84375,-5.828125 4.84375,-17.15625 z"/></defs><use id="use117" width="100%" height="100%" x="0" y="0" xlink:href="#DejaVuSans-101"/><use id="use119" width="100%" height="100%" x="61.523" y="0" xlink:href="#DejaVuSans-112"/><use id="use121" width="100%" height="100%" x="125" y="0" xlink:href="#DejaVuSans-111"/><use id="use123" width="100%" height="100%" x="186.182" y="0" xlink:href="#DejaVuSans-99"/><use id="use125" width="100%" height="100%" x="241.162" y="0" xlink:href="#DejaVuSans-104"/></g><g id="line2d_8"><path style="fill:none;stroke:#fff;stroke-linecap:round" id="path131" d="M 49.807187,297.68048 H 359.95763" clip-path="url(#p33d8bb518f)"/></g><g id="text_9"><g style="fill:#262626" id="g143" transform="matrix(0.11,0,0,-0.11,22.81375,301.85962)"><defs id="defs135"><path id="DejaVuSans-46" d="M 10.6875,12.40625 H 21 V 0 H 10.6875 Z"/></defs><use id="use137" width="100%" height="100%" x="0" y="0" xlink:href="#DejaVuSans-53"/><use id="use139" width="100%" height="100%" x="63.623" y="0" xlink:href="#DejaVuSans-46"/><use id="use141" width="100%" height="100%" x="95.41" y="0" xlink:href="#DejaVuSans-48"/></g></g><g id="line2d_9"><path style="fill:none;stroke:#fff;stroke-linecap:round" id="path147" d="M 49.807187,261.98413 H 359.95763" clip-path="url(#p33d8bb518f)"/></g><g id="text_10"><g style="fill:#262626" id="g156" transform="matrix(0.11,0,0,-0.11,22.81375,266.16327)"><use id="use150" width="100%" height="100%" x="0" y="0" xlink:href="#DejaVuSans-53"/><use id="use152" width="100%" height="100%" x="63.623" y="0" xlink:href="#DejaVuSans-46"/><use id="use154" width="100%" height="100%" x="95.41" y="0" xlink:href="#DejaVuSans-49"/></g></g><g id="line2d_10"><path style="fill:none;stroke:#fff;stroke-linecap:round" id="path160" d="M 49.807187,226.28778 H 359.95763" clip-path="url(#p33d8bb518f)"/></g><g id="text_11"><g style="fill:#262626" id="g169" transform="matrix(0.11,0,0,-0.11,22.81375,230.46692)"><use id="use163" width="100%" height="100%" x="0" y="0" xlink:href="#DejaVuSans-53"/><use id="use165" width="100%" height="100%" x="63.623" y="0" xlink:href="#DejaVuSans-46"/><use id="use167" width="100%" height="100%" x="95.41" y="0" xlink:href="#DejaVuSans-50"/></g></g><g id="line2d_11"><path style="fill:none;stroke:#fff;stroke-linecap:round" id="path173" d="M 49.807187,190.59142 H 359.95763" clip-path="url(#p33d8bb518f)"/></g><g id="text_12"><g style="fill:#262626" id="g182" transform="matrix(0.11,0,0,-0.11,22.81375,194.77056)"><use id="use176" width="100%" height="100%" x="0" y="0" xlink:href="#DejaVuSans-53"/><use id="use178" width="100%" height="100%" x="63.623" y="0" xlink:href="#DejaVuSans-46"/><use id="use180" width="100%" height="100%" x="95.41" y="0" xlink:href="#DejaVuSans-51"/></g></g><g id="line2d_12"><path style="fill:none;stroke:#fff;stroke-linecap:round" id="path186" d="M 49.807187,154.89507 H 359.95763" clip-path="url(#p33d8bb518f)"/></g><g id="text_13"><g style="fill:#262626" id="g195" transform="matrix(0.11,0,0,-0.11,22.81375,159.07421)"><use id="use189" width="100%" height="100%" x="0" y="0" xlink:href="#DejaVuSans-53"/><use id="use191" width="100%" height="100%" x="63.623" y="0" xlink:href="#DejaVuSans-46"/><use id="use193" width="100%" height="100%" x="95.41" y="0" xlink:href="#DejaVuSans-52"/></g></g><g id="line2d_13"><path style="fill:none;stroke:#fff;stroke-linecap:round" id="path199" d="M 49.807187,119.19872 H 359.95763" clip-path="url(#p33d8bb518f)"/></g><g id="text_14"><g style="fill:#262626" id="g208" transform="matrix(0.11,0,0,-0.11,22.81375,123.37786)"><use id="use202" width="100%" height="100%" x="0" y="0" xlink:href="#DejaVuSans-53"/><use id="use204" width="100%" height="100%" x="63.623" y="0" xlink:href="#DejaVuSans-46"/><use id="use206" width="100%" height="100%" x="95.41" y="0" xlink:href="#DejaVuSans-53"/></g></g><g id="line2d_14"><path style="fill:none;stroke:#fff;stroke-linecap:round" id="path212" d="M 49.807187,83.502363 H 359.95763" clip-path="url(#p33d8bb518f)"/></g><g id="text_15"><g style="fill:#262626" id="g221" transform="matrix(0.11,0,0,-0.11,22.81375,87.681504)"><use id="use215" width="100%" height="100%" x="0" y="0" xlink:href="#DejaVuSans-53"/><use id="use217" width="100%" height="100%" x="63.623" y="0" xlink:href="#DejaVuSans-46"/><use id="use219" width="100%" height="100%" x="95.41" y="0" xlink:href="#DejaVuSans-54"/></g></g><g id="line2d_15"><path style="fill:none;stroke:#fff;stroke-linecap:round" id="path225" d="M 49.807187,47.80601 H 359.95763" clip-path="url(#p33d8bb518f)"/></g><g id="text_16"><g style="fill:#262626" id="g237" transform="matrix(0.11,0,0,-0.11,22.81375,51.985151)"><defs id="defs229"><path id="DejaVuSans-55" d="m 8.203125,72.90625 h 46.875 V 68.703125 L 28.609375,0 H 18.3125 L 43.21875,64.59375 H 8.203125 Z"/></defs><use id="use231" width="100%" height="100%" x="0" y="0" xlink:href="#DejaVuSans-53"/><use id="use233" width="100%" height="100%" x="63.623" y="0" xlink:href="#DejaVuSans-46"/><use id="use235" width="100%" height="100%" x="95.41" y="0" xlink:href="#DejaVuSans-55"/></g></g><g style="fill:#262626" id="g257" transform="matrix(0,-0.12,-0.12,0,16.318125,187.5575)"><defs id="defs245"><path id="DejaVuSans-118" d="M 2.984375,54.6875 H 12.5 L 29.59375,8.796875 46.6875,54.6875 h 9.515625 L 35.6875,0 H 23.484375 Z"/><path id="DejaVuSans-97" d="m 34.28125,27.484375 q -10.890625,0 -15.09375,-2.484375 -4.203125,-2.484375 -4.203125,-8.5 0,-4.78125 3.15625,-7.59375 3.15625,-2.796875 8.5625,-2.796875 7.484375,0 12,5.296875 4.515625,5.296875 4.515625,14.078125 v 2 z m 17.921875,3.71875 V 0 H 43.21875 v 8.296875 q -3.078125,-4.96875 -7.671875,-7.34375 -4.59375,-2.375 -11.234375,-2.375 -8.390625,0 -13.359375,4.71875 Q 6,8.015625 6,15.921875 q 0,9.21875 6.171875,13.90625 6.1875,4.6875 18.4375,4.6875 H 43.21875 v 0.890625 q 0,6.203125 -4.078125,9.59375 -4.078125,3.390625 -11.453125,3.390625 -4.6875,0 -9.140625,-1.125 -4.4375,-1.125 -8.53125,-3.375 v 8.3125 q 4.921875,1.90625 9.5625,2.84375 Q 24.21875,56 28.609375,56 q 11.875,0 17.734375,-6.15625 5.859375,-6.140625 5.859375,-18.640625 z"/><path id="DejaVuSans-108" d="M 9.421875,75.984375 H 18.40625 V 0 H 9.421875 Z"/><path id="DejaVuSans-117" d="M 8.5,21.578125 V 54.6875 h 8.984375 V 21.921875 q 0,-7.765625 3.015625,-11.65625 3.03125,-3.875 9.09375,-3.875 7.265625,0 11.484375,4.640625 4.234375,4.640625 4.234375,12.65625 v 31 h 8.984375 V 0 H 45.3125 V 8.40625 Q 42.046875,3.421875 37.71875,1 33.40625,-1.421875 27.6875,-1.421875 18.265625,-1.421875 13.375,4.4375 8.5,10.296875 8.5,21.578125 Z M 31.109375,56 Z"/></defs><use id="use247" width="100%" height="100%" x="0" y="0" xlink:href="#DejaVuSans-118"/><use id="use249" width="100%" height="100%" x="59.18" y="0" xlink:href="#DejaVuSans-97"/><use id="use251" width="100%" height="100%" x="120.459" y="0" xlink:href="#DejaVuSans-108"/><use id="use253" width="100%" height="100%" x="148.242" y="0" xlink:href="#DejaVuSans-117"/><use id="use255" width="100%" height="100%" x="211.621" y="0" xlink:href="#DejaVuSans-101"/></g><path style="fill:none;stroke:#4c72b0;stroke-width:1.5;stroke-linecap:round" id="path261" d="m 63.904935,35.849943 4.622212,70.484717 4.622212,37.27556 4.622213,26.9259 4.622212,23.17967 4.622212,18.83923 4.622213,16.11683 4.622212,11.36533 4.622209,10.39647 4.62222,8.80378 4.62221,6.86845 4.62221,5.26436 4.62221,6.56208 4.62221,4.53499 4.62222,4.67883 4.62221,3.60716 4.62221,3.17789 4.62221,1.52171 4.62222,3.18912 4.62221,3.13227 4.62221,0.48119 4.62221,1.01039 4.62221,2.27439 4.62222,-10e-4 4.62221,-0.57005 4.62221,1.51712 4.62221,-2.51338 4.62222,-2.42009 4.62221,-3.04018 4.62221,-1.37329 4.62221,-4.74231 4.62221,-0.75711 4.62222,-4.57806 4.62221,-2.99287 4.62221,-1.57669 4.62221,-8.81212 4.62222,-1.62571 4.62221,-4.43644 4.62221,-4.00819 4.62221,-5.73858 4.62222,-1.44272 4.62221,-11.37622 4.62221,0.10247 4.62221,-3.82623 4.62222,-9.55323 4.62221,-1.48358 4.62221,-7.98489 4.62221,-5.8979 4.62221,-3.39507 4.62222,-5.52445 4.62221,-6.30284 4.62221,-4.8744 4.62221,-5.53381 4.62221,-9.06932 4.62222,-8.08735 4.62221,0.70945 4.62221,-10.70694 4.62221,-5.5864 4.62222,-5.58556 4.62221,-2.93618 4.62221,-3.76342 4.62221,-8.89808" clip-path="url(#p33d8bb518f)"/><path style="fill:none;stroke:#fff;stroke-width:1.25;stroke-linecap:square;stroke-linejoin:miter" id="path268" d="M 49.807187,320.01812 V 22.318125"/><path style="fill:none;stroke:#fff;stroke-width:1.25;stroke-linecap:square;stroke-linejoin:miter" id="path271" d="M 49.807187,320.01812 H 359.95763"/><use id="use296" width="100%" height="100%" x="322.021" y="0" transform="matrix(0.12,0,0,-0.12,154.21428,16.318125)" xlink:href="#DejaVuSans-32" style="fill:#262626"/><use id="use300" width="100%" height="100%" x="437.598" y="0" transform="matrix(0.12,0,0,-0.12,154.21428,16.318125)" xlink:href="#DejaVuSans-32" style="fill:#262626"/><path style="fill:#eaeaf2" id="path322" d="M 406.58333,320.01812 H 716.73377 V 22.318125 H 406.58333 Z"/><g id="line2d_21"><path style="fill:none;stroke:#fff;stroke-linecap:round" id="path325" d="M 416.05985,320.01812 V 22.318125" clip-path="url(#pc9aebdb348)"/></g><g id="text_19"><g style="fill:#262626" id="g330" transform="matrix(0.11,0,0,-0.11,412.56048,337.87641)"><use id="use328" width="100%" height="100%" x="0" y="0" xlink:href="#DejaVuSans-48"/></g></g><g id="line2d_22"><path style="fill:none;stroke:#fff;stroke-linecap:round" id="path334" d="M 463.05218,320.01812 V 22.318125" clip-path="url(#pc9aebdb348)"/></g><g id="text_20"><g style="fill:#262626" id="g341" transform="matrix(0.11,0,0,-0.11,456.05343,337.87641)"><use id="use337" width="100%" height="100%" x="0" y="0" xlink:href="#DejaVuSans-49"/><use id="use339" width="100%" height="100%" x="63.623" y="0" xlink:href="#DejaVuSans-48"/></g></g><g id="line2d_23"><path style="fill:none;stroke:#fff;stroke-linecap:round" id="path345" d="M 510.04451,320.01812 V 22.318125" clip-path="url(#pc9aebdb348)"/></g><g id="text_21"><g style="fill:#262626" id="g352" transform="matrix(0.11,0,0,-0.11,503.04575,337.87641)"><use id="use348" width="100%" height="100%" x="0" y="0" xlink:href="#DejaVuSans-50"/><use id="use350" width="100%" height="100%" x="63.623" y="0" xlink:href="#DejaVuSans-48"/></g></g><g id="line2d_24"><path style="fill:none;stroke:#fff;stroke-linecap:round" id="path356" d="M 557.03683,320.01812 V 22.318125" clip-path="url(#pc9aebdb348)"/></g><g id="text_22"><g style="fill:#262626" id="g363" transform="matrix(0.11,0,0,-0.11,550.03808,337.87641)"><use id="use359" width="100%" height="100%" x="0" y="0" xlink:href="#DejaVuSans-51"/><use id="use361" width="100%" height="100%" x="63.623" y="0" xlink:href="#DejaVuSans-48"/></g></g><g id="line2d_25"><path style="fill:none;stroke:#fff;stroke-linecap:round" id="path367" d="M 604.02916,320.01812 V 22.318125" clip-path="url(#pc9aebdb348)"/></g><g id="text_23"><g style="fill:#262626" id="g374" transform="matrix(0.11,0,0,-0.11,597.03041,337.87641)"><use id="use370" width="100%" height="100%" x="0" y="0" xlink:href="#DejaVuSans-52"/><use id="use372" width="100%" height="100%" x="63.623" y="0" xlink:href="#DejaVuSans-48"/></g></g><g id="line2d_26"><path style="fill:none;stroke:#fff;stroke-linecap:round" id="path378" d="M 651.02148,320.01812 V 22.318125" clip-path="url(#pc9aebdb348)"/></g><g id="text_24"><g style="fill:#262626" id="g385" transform="matrix(0.11,0,0,-0.11,644.02273,337.87641)"><use id="use381" width="100%" height="100%" x="0" y="0" xlink:href="#DejaVuSans-53"/><use id="use383" width="100%" height="100%" x="63.623" y="0" xlink:href="#DejaVuSans-48"/></g></g><g id="line2d_27"><path style="fill:none;stroke:#fff;stroke-linecap:round" id="path389" d="M 698.01381,320.01812 V 22.318125" clip-path="url(#pc9aebdb348)"/></g><g id="text_25"><g style="fill:#262626" id="g396" transform="matrix(0.11,0,0,-0.11,691.01506,337.87641)"><use id="use392" width="100%" height="100%" x="0" y="0" xlink:href="#DejaVuSans-54"/><use id="use394" width="100%" height="100%" x="63.623" y="0" xlink:href="#DejaVuSans-48"/></g></g><g style="fill:#262626" id="g410" transform="matrix(0.12,0,0,-0.12,543.3848,353.28219)"><use id="use400" width="100%" height="100%" x="0" y="0" xlink:href="#DejaVuSans-101"/><use id="use402" width="100%" height="100%" x="61.523" y="0" xlink:href="#DejaVuSans-112"/><use id="use404" width="100%" height="100%" x="125" y="0" xlink:href="#DejaVuSans-111"/><use id="use406" width="100%" height="100%" x="186.182" y="0" xlink:href="#DejaVuSans-99"/><use id="use408" width="100%" height="100%" x="241.162" y="0" xlink:href="#DejaVuSans-104"/></g><g id="line2d_28"><path style="fill:none;stroke:#fff;stroke-linecap:round" id="path414" d="M 406.58333,305.94571 H 716.73377" clip-path="url(#pc9aebdb348)"/></g><g id="text_27"><g style="fill:#262626" id="g421" transform="matrix(0.11,0,0,-0.11,383.08583,310.12485)"><use id="use417" width="100%" height="100%" x="0" y="0" xlink:href="#DejaVuSans-49"/><use id="use419" width="100%" height="100%" x="63.623" y="0" xlink:href="#DejaVuSans-54"/></g></g><g id="line2d_29"><path style="fill:none;stroke:#fff;stroke-linecap:round" id="path425" d="M 406.58333,256.40552 H 716.73377" clip-path="url(#pc9aebdb348)"/></g><g id="text_28"><g style="fill:#262626" id="g432" transform="matrix(0.11,0,0,-0.11,383.08583,260.58466)"><use id="use428" width="100%" height="100%" x="0" y="0" xlink:href="#DejaVuSans-49"/><use id="use430" width="100%" height="100%" x="63.623" y="0" xlink:href="#DejaVuSans-55"/></g></g><g id="line2d_30"><path style="fill:none;stroke:#fff;stroke-linecap:round" id="path436" d="M 406.58333,206.86533 H 716.73377" clip-path="url(#pc9aebdb348)"/></g><g id="text_29"><g style="fill:#262626" id="g446" transform="matrix(0.11,0,0,-0.11,383.08583,211.04447)"><defs id="defs440"><path id="DejaVuSans-56" d="m 31.78125,34.625 q -7.03125,0 -11.0625,-3.765625 -4.015625,-3.765625 -4.015625,-10.34375 0,-6.59375 4.015625,-10.359375 4.03125,-3.765625 11.0625,-3.765625 7.03125,0 11.078125,3.78125 4.0625,3.796875 4.0625,10.34375 0,6.578125 -4.03125,10.34375 Q 38.875,34.625 31.78125,34.625 Z m -9.859375,4.1875 Q 15.578125,40.375 12.03125,44.71875 8.5,49.078125 8.5,55.328125 q 0,8.734375 6.21875,13.8125 6.234375,5.078125 17.0625,5.078125 10.890625,0 17.09375,-5.078125 6.203125,-5.078125 6.203125,-13.8125 0,-6.25 -3.546875,-10.609375 Q 48,40.375 41.703125,38.8125 q 7.125,-1.65625 11.09375,-6.5 3.984375,-4.828125 3.984375,-11.796875 0,-10.609375 -6.46875,-16.28125 -6.46875,-5.65625 -18.53125,-5.65625 -12.046875,0 -18.53125,5.65625 -6.46875,5.671875 -6.46875,16.28125 0,6.96875 4,11.796875 4.015625,4.84375 11.140625,6.5 z M 18.3125,54.390625 q 0,-5.65625 3.53125,-8.828125 3.546875,-3.171875 9.9375,-3.171875 6.359375,0 9.9375,3.171875 3.59375,3.171875 3.59375,8.828125 0,5.671875 -3.59375,8.84375 -3.578125,3.171875 -9.9375,3.171875 -6.390625,0 -9.9375,-3.171875 Q 18.3125,60.0625 18.3125,54.390625 Z"/></defs><use id="use442" width="100%" height="100%" x="0" y="0" xlink:href="#DejaVuSans-49"/><use id="use444" width="100%" height="100%" x="63.623" y="0" xlink:href="#DejaVuSans-56"/></g></g><g id="line2d_31"><path style="fill:none;stroke:#fff;stroke-linecap:round" id="path450" d="M 406.58333,157.32514 H 716.73377" clip-path="url(#pc9aebdb348)"/></g><g id="text_30"><g style="fill:#262626" id="g460" transform="matrix(0.11,0,0,-0.11,383.08583,161.50428)"><defs id="defs454"><path id="DejaVuSans-57" d="M 10.984375,1.515625 V 10.5 Q 14.703125,8.734375 18.5,7.8125 q 3.8125,-0.921875 7.484375,-0.921875 9.765625,0 14.90625,6.5625 5.15625,6.5625 5.890625,19.953125 -2.828125,-4.203125 -7.1875,-6.453125 -4.34375,-2.25 -9.609375,-2.25 -10.9375,0 -17.3125,6.609375 -6.375,6.625 -6.375,18.109375 0,11.21875 6.640625,18 6.640625,6.796875 17.671875,6.796875 12.65625,0 19.3125,-9.703125 6.671875,-9.6875 6.671875,-28.140625 0,-17.234375 -8.1875,-27.515625 -8.171875,-10.28125 -21.984375,-10.28125 -3.71875,0 -7.53125,0.734375 -3.796875,0.734375 -7.90625,2.203125 z m 19.625,30.90625 q 6.640625,0 10.515625,4.53125 3.890625,4.546875 3.890625,12.46875 0,7.859375 -3.890625,12.421875 -3.875,4.5625 -10.515625,4.5625 -6.640625,0 -10.515625,-4.5625 -3.875,-4.5625 -3.875,-12.421875 0,-7.921875 3.875,-12.46875 3.875,-4.53125 10.515625,-4.53125 z"/></defs><use id="use456" width="100%" height="100%" x="0" y="0" xlink:href="#DejaVuSans-49"/><use id="use458" width="100%" height="100%" x="63.623" y="0" xlink:href="#DejaVuSans-57"/></g></g><g id="line2d_32"><path style="fill:none;stroke:#fff;stroke-linecap:round" id="path464" d="M 406.58333,107.78495 H 716.73377" clip-path="url(#pc9aebdb348)"/></g><g id="text_31"><g style="fill:#262626" id="g471" transform="matrix(0.11,0,0,-0.11,383.08583,111.96409)"><use id="use467" width="100%" height="100%" x="0" y="0" xlink:href="#DejaVuSans-50"/><use id="use469" width="100%" height="100%" x="63.623" y="0" xlink:href="#DejaVuSans-48"/></g></g><g id="line2d_33"><path style="fill:none;stroke:#fff;stroke-linecap:round" id="path475" d="M 406.58333,58.244763 H 716.73377" clip-path="url(#pc9aebdb348)"/></g><g id="text_32"><g style="fill:#262626" id="g482" transform="matrix(0.11,0,0,-0.11,383.08583,62.423903)"><use id="use478" width="100%" height="100%" x="0" y="0" xlink:href="#DejaVuSans-50"/><use id="use480" width="100%" height="100%" x="63.623" y="0" xlink:href="#DejaVuSans-49"/></g></g><use style="fill:#dd8452;fill-opacity:.2;stroke:#dd8452;stroke-opacity:.2" id="use490" width="100%" height="100%" x="0" y="362.978" xlink:href="#m04b1e6744d"/><path style="fill:none;stroke:#dd8452;stroke-width:1.5;stroke-linecap:round" id="path495" d="m 466.9032,298.24152 46.22212,-112.55207 46.22212,-69.94726 46.22212,-45.493385 46.22312,4.861021 46.22212,-31.726114" clip-path="url(#pc9aebdb348)"/><path style="fill:none;stroke:#fff;stroke-width:1.25;stroke-linecap:square;stroke-linejoin:miter" id="path498" d="M 406.58333,320.01812 V 22.318125"/><path style="fill:none;stroke:#fff;stroke-width:1.25;stroke-linecap:square;stroke-linejoin:miter" id="path501" d="M 406.58333,320.01812 H 716.73377"/><use id="use520" width="100%" height="100%" x="322.021" y="0" transform="matrix(0.12,0,0,-0.12,480.36511,16.318125)" xlink:href="#DejaVuSans-32" style="fill:#262626"/><use id="use524" width="100%" height="100%" x="437.598" y="0" transform="matrix(0.12,0,0,-0.12,480.36511,16.318125)" xlink:href="#DejaVuSans-32" style="fill:#262626"/><path style="fill:#eaeaf2" id="path564" d="M 763.35946,320.01812 H 1073.5099 V 22.318125 H 763.35946 Z"/><g id="line2d_35"><path style="fill:none;stroke:#fff;stroke-linecap:round" id="path567" d="M 772.83599,320.01812 V 22.318125" clip-path="url(#p802a2bf9b6)"/></g><g id="text_34"><g style="fill:#262626" id="g572" transform="matrix(0.11,0,0,-0.11,769.33662,337.87641)"><use id="use570" width="100%" height="100%" x="0" y="0" xlink:href="#DejaVuSans-48"/></g></g><g id="line2d_36"><path style="fill:none;stroke:#fff;stroke-linecap:round" id="path576" d="M 819.82832,320.01812 V 22.318125" clip-path="url(#p802a2bf9b6)"/></g><g id="text_35"><g style="fill:#262626" id="g583" transform="matrix(0.11,0,0,-0.11,812.82957,337.87641)"><use id="use579" width="100%" height="100%" x="0" y="0" xlink:href="#DejaVuSans-49"/><use id="use581" width="100%" height="100%" x="63.623" y="0" xlink:href="#DejaVuSans-48"/></g></g><g id="line2d_37"><path style="fill:none;stroke:#fff;stroke-linecap:round" id="path587" d="M 866.82064,320.01812 V 22.318125" clip-path="url(#p802a2bf9b6)"/></g><g id="text_36"><g style="fill:#262626" id="g594" transform="matrix(0.11,0,0,-0.11,859.82189,337.87641)"><use id="use590" width="100%" height="100%" x="0" y="0" xlink:href="#DejaVuSans-50"/><use id="use592" width="100%" height="100%" x="63.623" y="0" xlink:href="#DejaVuSans-48"/></g></g><g id="line2d_38"><path style="fill:none;stroke:#fff;stroke-linecap:round" id="path598" d="M 913.81297,320.01812 V 22.318125" clip-path="url(#p802a2bf9b6)"/></g><g id="text_37"><g style="fill:#262626" id="g605" transform="matrix(0.11,0,0,-0.11,906.81422,337.87641)"><use id="use601" width="100%" height="100%" x="0" y="0" xlink:href="#DejaVuSans-51"/><use id="use603" width="100%" height="100%" x="63.623" y="0" xlink:href="#DejaVuSans-48"/></g></g><g id="line2d_39"><path style="fill:none;stroke:#fff;stroke-linecap:round" id="path609" d="M 960.8053,320.01812 V 22.318125" clip-path="url(#p802a2bf9b6)"/></g><g id="text_38"><g style="fill:#262626" id="g616" transform="matrix(0.11,0,0,-0.11,953.80655,337.87641)"><use id="use612" width="100%" height="100%" x="0" y="0" xlink:href="#DejaVuSans-52"/><use id="use614" width="100%" height="100%" x="63.623" y="0" xlink:href="#DejaVuSans-48"/></g></g><g id="line2d_40"><path style="fill:none;stroke:#fff;stroke-linecap:round" id="path620" d="M 1007.7976,320.01812 V 22.318125" clip-path="url(#p802a2bf9b6)"/></g><g id="text_39"><g style="fill:#262626" id="g627" transform="matrix(0.11,0,0,-0.11,1000.7989,337.87641)"><use id="use623" width="100%" height="100%" x="0" y="0" xlink:href="#DejaVuSans-53"/><use id="use625" width="100%" height="100%" x="63.623" y="0" xlink:href="#DejaVuSans-48"/></g></g><g id="line2d_41"><path style="fill:none;stroke:#fff;stroke-linecap:round" id="path631" d="M 1054.7899,320.01812 V 22.318125" clip-path="url(#p802a2bf9b6)"/></g><g id="text_40"><g style="fill:#262626" id="g638" transform="matrix(0.11,0,0,-0.11,1047.7912,337.87641)"><use id="use634" width="100%" height="100%" x="0" y="0" xlink:href="#DejaVuSans-54"/><use id="use636" width="100%" height="100%" x="63.623" y="0" xlink:href="#DejaVuSans-48"/></g></g><g style="fill:#262626" id="g652" transform="matrix(0.12,0,0,-0.12,900.16094,353.28219)"><use id="use642" width="100%" height="100%" x="0" y="0" xlink:href="#DejaVuSans-101"/><use id="use644" width="100%" height="100%" x="61.523" y="0" xlink:href="#DejaVuSans-112"/><use id="use646" width="100%" height="100%" x="125" y="0" xlink:href="#DejaVuSans-111"/><use id="use648" width="100%" height="100%" x="186.182" y="0" xlink:href="#DejaVuSans-99"/><use id="use650" width="100%" height="100%" x="241.162" y="0" xlink:href="#DejaVuSans-104"/></g><g id="line2d_42"><path style="fill:none;stroke:#fff;stroke-linecap:round" id="path656" d="M 763.35946,287.1221 H 1073.5099" clip-path="url(#p802a2bf9b6)"/></g><g id="text_42"><g style="fill:#262626" id="g667" transform="matrix(0.11,0,0,-0.11,729.36728,291.30124)"><use id="use659" width="100%" height="100%" x="0" y="0" xlink:href="#DejaVuSans-51"/><use id="use661" width="100%" height="100%" x="63.623" y="0" xlink:href="#DejaVuSans-53"/><use id="use663" width="100%" height="100%" x="127.246" y="0" xlink:href="#DejaVuSans-46"/><use id="use665" width="100%" height="100%" x="159.033" y="0" xlink:href="#DejaVuSans-48"/></g></g><g id="line2d_43"><path style="fill:none;stroke:#fff;stroke-linecap:round" id="path671" d="M 763.35946,249.05892 H 1073.5099" clip-path="url(#p802a2bf9b6)"/></g><g id="text_43"><g style="fill:#262626" id="g682" transform="matrix(0.11,0,0,-0.11,729.36728,253.23807)"><use id="use674" width="100%" height="100%" x="0" y="0" xlink:href="#DejaVuSans-51"/><use id="use676" width="100%" height="100%" x="63.623" y="0" xlink:href="#DejaVuSans-55"/><use id="use678" width="100%" height="100%" x="127.246" y="0" xlink:href="#DejaVuSans-46"/><use id="use680" width="100%" height="100%" x="159.033" y="0" xlink:href="#DejaVuSans-53"/></g></g><g id="line2d_44"><path style="fill:none;stroke:#fff;stroke-linecap:round" id="path686" d="M 763.35946,210.99575 H 1073.5099" clip-path="url(#p802a2bf9b6)"/></g><g id="text_44"><g style="fill:#262626" id="g697" transform="matrix(0.11,0,0,-0.11,729.36728,215.17489)"><use id="use689" width="100%" height="100%" x="0" y="0" xlink:href="#DejaVuSans-52"/><use id="use691" width="100%" height="100%" x="63.623" y="0" xlink:href="#DejaVuSans-48"/><use id="use693" width="100%" height="100%" x="127.246" y="0" xlink:href="#DejaVuSans-46"/><use id="use695" width="100%" height="100%" x="159.033" y="0" xlink:href="#DejaVuSans-48"/></g></g><g id="line2d_45"><path style="fill:none;stroke:#fff;stroke-linecap:round" id="path701" d="M 763.35946,172.93257 H 1073.5099" clip-path="url(#p802a2bf9b6)"/></g><g id="text_45"><g style="fill:#262626" id="g712" transform="matrix(0.11,0,0,-0.11,729.36728,177.11171)"><use id="use704" width="100%" height="100%" x="0" y="0" xlink:href="#DejaVuSans-52"/><use id="use706" width="100%" height="100%" x="63.623" y="0" xlink:href="#DejaVuSans-50"/><use id="use708" width="100%" height="100%" x="127.246" y="0" xlink:href="#DejaVuSans-46"/><use id="use710" width="100%" height="100%" x="159.033" y="0" xlink:href="#DejaVuSans-53"/></g></g><g id="line2d_46"><path style="fill:none;stroke:#fff;stroke-linecap:round" id="path716" d="M 763.35946,134.86939 H 1073.5099" clip-path="url(#p802a2bf9b6)"/></g><g id="text_46"><g style="fill:#262626" id="g727" transform="matrix(0.11,0,0,-0.11,729.36728,139.04854)"><use id="use719" width="100%" height="100%" x="0" y="0" xlink:href="#DejaVuSans-52"/><use id="use721" width="100%" height="100%" x="63.623" y="0" xlink:href="#DejaVuSans-53"/><use id="use723" width="100%" height="100%" x="127.246" y="0" xlink:href="#DejaVuSans-46"/><use id="use725" width="100%" height="100%" x="159.033" y="0" xlink:href="#DejaVuSans-48"/></g></g><g id="line2d_47"><path style="fill:none;stroke:#fff;stroke-linecap:round" id="path731" d="M 763.35946,96.806218 H 1073.5099" clip-path="url(#p802a2bf9b6)"/></g><g id="text_47"><g style="fill:#262626" id="g742" transform="matrix(0.11,0,0,-0.11,729.36728,100.98536)"><use id="use734" width="100%" height="100%" x="0" y="0" xlink:href="#DejaVuSans-52"/><use id="use736" width="100%" height="100%" x="63.623" y="0" xlink:href="#DejaVuSans-55"/><use id="use738" width="100%" height="100%" x="127.246" y="0" xlink:href="#DejaVuSans-46"/><use id="use740" width="100%" height="100%" x="159.033" y="0" xlink:href="#DejaVuSans-53"/></g></g><g id="line2d_48"><path style="fill:none;stroke:#fff;stroke-linecap:round" id="path746" d="M 763.35946,58.743042 H 1073.5099" clip-path="url(#p802a2bf9b6)"/></g><g id="text_48"><g style="fill:#262626" id="g757" transform="matrix(0.11,0,0,-0.11,729.36728,62.922182)"><use id="use749" width="100%" height="100%" x="0" y="0" xlink:href="#DejaVuSans-53"/><use id="use751" width="100%" height="100%" x="63.623" y="0" xlink:href="#DejaVuSans-48"/><use id="use753" width="100%" height="100%" x="127.246" y="0" xlink:href="#DejaVuSans-46"/><use id="use755" width="100%" height="100%" x="159.033" y="0" xlink:href="#DejaVuSans-48"/></g></g><use style="fill:#55a868;fill-opacity:.2;stroke:#55a868;stroke-opacity:.2" id="use765" width="100%" height="100%" x="0" y="362.978" xlink:href="#m89ce144a55"/><path style="fill:none;stroke:#55a868;stroke-width:1.5;stroke-linecap:round" id="path770" d="m 823.67934,39.29376 46.22212,139.28081 46.22212,70.10897 46.22212,23.95389 46.2231,14.91079 46.2221,17.98692" clip-path="url(#p802a2bf9b6)"/><path style="fill:none;stroke:#fff;stroke-width:1.25;stroke-linecap:square;stroke-linejoin:miter" id="path773" d="M 763.35946,320.01812 V 22.318125"/><path style="fill:none;stroke:#fff;stroke-width:1.25;stroke-linecap:square;stroke-linejoin:miter" id="path776" d="M 763.35946,320.01812 H 1073.5099"/><use id="use795" width="100%" height="100%" x="322.021" y="0" transform="matrix(0.12,0,0,-0.12,857.31531,16.318125)" xlink:href="#DejaVuSans-32" style="fill:#262626"/><use id="use799" width="100%" height="100%" x="437.598" y="0" transform="matrix(0.12,0,0,-0.12,857.31531,16.318125)" xlink:href="#DejaVuSans-32" style="fill:#262626"/><path style="fill:#eaeaf2" id="path827" d="M 1120.1356,320.01812 H 1430.286 V 22.318125 h -310.1504 z"/><g id="line2d_50"><path style="fill:none;stroke:#fff;stroke-linecap:round" id="path830" d="M 1129.6121,320.01812 V 22.318125" clip-path="url(#p3d5e40a9df)"/></g><g id="text_50"><g style="fill:#262626" id="g835" transform="matrix(0.11,0,0,-0.11,1126.1128,337.87641)"><use id="use833" width="100%" height="100%" x="0" y="0" xlink:href="#DejaVuSans-48"/></g></g><g id="line2d_51"><path style="fill:none;stroke:#fff;stroke-linecap:round" id="path839" d="M 1176.6045,320.01812 V 22.318125" clip-path="url(#p3d5e40a9df)"/></g><g id="text_51"><g style="fill:#262626" id="g846" transform="matrix(0.11,0,0,-0.11,1169.6057,337.87641)"><use id="use842" width="100%" height="100%" x="0" y="0" xlink:href="#DejaVuSans-49"/><use id="use844" width="100%" height="100%" x="63.623" y="0" xlink:href="#DejaVuSans-48"/></g></g><g id="line2d_52"><path style="fill:none;stroke:#fff;stroke-linecap:round" id="path850" d="M 1223.5968,320.01812 V 22.318125" clip-path="url(#p3d5e40a9df)"/></g><g id="text_52"><g style="fill:#262626" id="g857" transform="matrix(0.11,0,0,-0.11,1216.598,337.87641)"><use id="use853" width="100%" height="100%" x="0" y="0" xlink:href="#DejaVuSans-50"/><use id="use855" width="100%" height="100%" x="63.623" y="0" xlink:href="#DejaVuSans-48"/></g></g><g id="line2d_53"><path style="fill:none;stroke:#fff;stroke-linecap:round" id="path861" d="M 1270.5891,320.01812 V 22.318125" clip-path="url(#p3d5e40a9df)"/></g><g id="text_53"><g style="fill:#262626" id="g868" transform="matrix(0.11,0,0,-0.11,1263.5904,337.87641)"><use id="use864" width="100%" height="100%" x="0" y="0" xlink:href="#DejaVuSans-51"/><use id="use866" width="100%" height="100%" x="63.623" y="0" xlink:href="#DejaVuSans-48"/></g></g><g id="line2d_54"><path style="fill:none;stroke:#fff;stroke-linecap:round" id="path872" d="M 1317.5814,320.01812 V 22.318125" clip-path="url(#p3d5e40a9df)"/></g><g id="text_54"><g style="fill:#262626" id="g879" transform="matrix(0.11,0,0,-0.11,1310.5827,337.87641)"><use id="use875" width="100%" height="100%" x="0" y="0" xlink:href="#DejaVuSans-52"/><use id="use877" width="100%" height="100%" x="63.623" y="0" xlink:href="#DejaVuSans-48"/></g></g><g id="line2d_55"><path style="fill:none;stroke:#fff;stroke-linecap:round" id="path883" d="M 1364.5738,320.01812 V 22.318125" clip-path="url(#p3d5e40a9df)"/></g><g id="text_55"><g style="fill:#262626" id="g890" transform="matrix(0.11,0,0,-0.11,1357.575,337.87641)"><use id="use886" width="100%" height="100%" x="0" y="0" xlink:href="#DejaVuSans-53"/><use id="use888" width="100%" height="100%" x="63.623" y="0" xlink:href="#DejaVuSans-48"/></g></g><g id="line2d_56"><path style="fill:none;stroke:#fff;stroke-linecap:round" id="path894" d="M 1411.5661,320.01812 V 22.318125" clip-path="url(#p3d5e40a9df)"/></g><g id="text_56"><g style="fill:#262626" id="g901" transform="matrix(0.11,0,0,-0.11,1404.5673,337.87641)"><use id="use897" width="100%" height="100%" x="0" y="0" xlink:href="#DejaVuSans-54"/><use id="use899" width="100%" height="100%" x="63.623" y="0" xlink:href="#DejaVuSans-48"/></g></g><g style="fill:#262626" id="g915" transform="matrix(0.12,0,0,-0.12,1256.9371,353.28219)"><use id="use905" width="100%" height="100%" x="0" y="0" xlink:href="#DejaVuSans-101"/><use id="use907" width="100%" height="100%" x="61.523" y="0" xlink:href="#DejaVuSans-112"/><use id="use909" width="100%" height="100%" x="125" y="0" xlink:href="#DejaVuSans-111"/><use id="use911" width="100%" height="100%" x="186.182" y="0" xlink:href="#DejaVuSans-99"/><use id="use913" width="100%" height="100%" x="241.162" y="0" xlink:href="#DejaVuSans-104"/></g><g id="line2d_57"><path style="fill:none;stroke:#fff;stroke-linecap:round" id="path919" d="M 1120.1356,289.97586 H 1430.286" clip-path="url(#p3d5e40a9df)"/></g><g id="text_58"><g style="fill:#262626" id="g926" transform="matrix(0.11,0,0,-0.11,1096.6381,294.155)"><use id="use922" width="100%" height="100%" x="0" y="0" xlink:href="#DejaVuSans-49"/><use id="use924" width="100%" height="100%" x="63.623" y="0" xlink:href="#DejaVuSans-48"/></g></g><g id="line2d_58"><path style="fill:none;stroke:#fff;stroke-linecap:round" id="path930" d="M 1120.1356,254.57701 H 1430.286" clip-path="url(#p3d5e40a9df)"/></g><g id="text_59"><g style="fill:#262626" id="g937" transform="matrix(0.11,0,0,-0.11,1096.6381,258.75615)"><use id="use933" width="100%" height="100%" x="0" y="0" xlink:href="#DejaVuSans-49"/><use id="use935" width="100%" height="100%" x="63.623" y="0" xlink:href="#DejaVuSans-50"/></g></g><g id="line2d_59"><path style="fill:none;stroke:#fff;stroke-linecap:round" id="path941" d="M 1120.1356,219.17816 H 1430.286" clip-path="url(#p3d5e40a9df)"/></g><g id="text_60"><g style="fill:#262626" id="g948" transform="matrix(0.11,0,0,-0.11,1096.6381,223.3573)"><use id="use944" width="100%" height="100%" x="0" y="0" xlink:href="#DejaVuSans-49"/><use id="use946" width="100%" height="100%" x="63.623" y="0" xlink:href="#DejaVuSans-52"/></g></g><g id="line2d_60"><path style="fill:none;stroke:#fff;stroke-linecap:round" id="path952" d="M 1120.1356,183.77931 H 1430.286" clip-path="url(#p3d5e40a9df)"/></g><g id="text_61"><g style="fill:#262626" id="g959" transform="matrix(0.11,0,0,-0.11,1096.6381,187.95845)"><use id="use955" width="100%" height="100%" x="0" y="0" xlink:href="#DejaVuSans-49"/><use id="use957" width="100%" height="100%" x="63.623" y="0" xlink:href="#DejaVuSans-54"/></g></g><g id="line2d_61"><path style="fill:none;stroke:#fff;stroke-linecap:round" id="path963" d="M 1120.1356,148.38046 H 1430.286" clip-path="url(#p3d5e40a9df)"/></g><g id="text_62"><g style="fill:#262626" id="g970" transform="matrix(0.11,0,0,-0.11,1096.6381,152.5596)"><use id="use966" width="100%" height="100%" x="0" y="0" xlink:href="#DejaVuSans-49"/><use id="use968" width="100%" height="100%" x="63.623" y="0" xlink:href="#DejaVuSans-56"/></g></g><g id="line2d_62"><path style="fill:none;stroke:#fff;stroke-linecap:round" id="path974" d="M 1120.1356,112.98161 H 1430.286" clip-path="url(#p3d5e40a9df)"/></g><g id="text_63"><g style="fill:#262626" id="g981" transform="matrix(0.11,0,0,-0.11,1096.6381,117.16075)"><use id="use977" width="100%" height="100%" x="0" y="0" xlink:href="#DejaVuSans-50"/><use id="use979" width="100%" height="100%" x="63.623" y="0" xlink:href="#DejaVuSans-48"/></g></g><g id="line2d_63"><path style="fill:none;stroke:#fff;stroke-linecap:round" id="path985" d="M 1120.1356,77.582761 H 1430.286" clip-path="url(#p3d5e40a9df)"/></g><g id="text_64"><g style="fill:#262626" id="g992" transform="matrix(0.11,0,0,-0.11,1096.6381,81.761901)"><use id="use988" width="100%" height="100%" x="0" y="0" xlink:href="#DejaVuSans-50"/><use id="use990" width="100%" height="100%" x="63.623" y="0" xlink:href="#DejaVuSans-50"/></g></g><g id="line2d_64"><path style="fill:none;stroke:#fff;stroke-linecap:round" id="path996" d="M 1120.1356,42.183912 H 1430.286" clip-path="url(#p3d5e40a9df)"/></g><g id="text_65"><g style="fill:#262626" id="g1003" transform="matrix(0.11,0,0,-0.11,1096.6381,46.363052)"><use id="use999" width="100%" height="100%" x="0" y="0" xlink:href="#DejaVuSans-50"/><use id="use1001" width="100%" height="100%" x="63.623" y="0" xlink:href="#DejaVuSans-52"/></g></g><use style="fill:#c44e52;fill-opacity:.2;stroke:#c44e52;stroke-opacity:.2" id="use1011" width="100%" height="100%" x="0" y="362.978" xlink:href="#m867c8604a3"/><path style="fill:none;stroke:#c44e52;stroke-width:1.5;stroke-linecap:round" id="path1016" d="m 1180.4555,37.721093 46.2221,158.052587 46.2221,57.14264 46.2221,24.61652 46.2232,18.40299 46.2221,10.22851" clip-path="url(#p3d5e40a9df)"/><path style="fill:none;stroke:#fff;stroke-width:1.25;stroke-linecap:square;stroke-linejoin:miter" id="path1019" d="M 1120.1356,320.01812 V 22.318125"/><path style="fill:none;stroke:#fff;stroke-width:1.25;stroke-linecap:square;stroke-linejoin:miter" id="path1022" d="M 1120.1356,320.01812 H 1430.286"/><use id="use1037" width="100%" height="100%" x="322.021" y="0" transform="matrix(0.12,0,0,-0.12,1193.4805,16.318125)" xlink:href="#DejaVuSans-32" style="fill:#262626"/><use id="use1041" width="100%" height="100%" x="437.598" y="0" transform="matrix(0.12,0,0,-0.12,1193.4805,16.318125)" xlink:href="#DejaVuSans-32" style="fill:#262626"/><defs id="defs1094"><clipPath id="p33d8bb518f"><rect id="rect1082" width="310.15" height="297.7" x="49.807" y="22.318"/></clipPath><clipPath id="pc9aebdb348"><rect id="rect1085" width="310.15" height="297.7" x="406.583" y="22.318"/></clipPath><clipPath id="p802a2bf9b6"><rect id="rect1088" width="310.15" height="297.7" x="763.359" y="22.318"/></clipPath><clipPath id="p3d5e40a9df"><rect id="rect1091" width="310.15" height="297.7" x="1120.136" y="22.318"/></clipPath></defs><text style="font-size:12px;line-height:1.25;font-family:sans-serif;letter-spacing:0;word-spacing:0;stroke-width:.75" id="text5545" x="174.398" y="12.124" xml:space="preserve"><tspan id="tspan5543" x="174.398" y="12.124" style="stroke-width:.75">NLL loss</tspan></text><text style="font-size:12px;line-height:1.25;font-family:sans-serif;letter-spacing:0;word-spacing:0;stroke-width:.75" id="text5717" x="519.085" y="12.124" xml:space="preserve"><tspan id="tspan5715" x="519.085" y="12.124" style="stroke-width:.75">Inception score</tspan></text><text style="font-size:12px;line-height:1.25;font-family:sans-serif;letter-spacing:0;word-spacing:0;stroke-width:.75" id="text6933" x="914.942" y="12.124" xml:space="preserve"><tspan id="tspan6931" x="914.942" y="12.124" style="stroke-width:.75">FID</tspan></text><text style="font-size:12px;line-height:1.25;font-family:sans-serif;letter-spacing:0;word-spacing:0;stroke-width:.75" id="text7819" x="1257.351" y="12.124" xml:space="preserve"><tspan id="tspan7817" x="1257.351" y="12.124" style="stroke-width:.75">SceneFID</tspan></text></svg>